<svg xmlns="http://www.w3.org/2000/svg" xmlns:xlink="http://www.w3.org/1999/xlink" width="300" height="300" viewBox="0 0 300 300">
  <defs>
    <clipPath id="clip-path">
      <rect id="Rectangle_3429" data-name="Rectangle 3429" width="130" height="130" transform="translate(3787 1921)" fill="#fff" stroke="#707070" stroke-width="1"/>
    </clipPath>
  </defs>
  <g id="Groupe_3751" data-name="Groupe 3751" transform="translate(-3435 -1907)">
    <path id="Tracé_6962" data-name="Tracé 6962" d="M150,0A150,150,0,1,1,0,150,150,150,0,0,1,150,0Z" transform="translate(3435 1907)" fill="#38375a"/>
    <g id="Groupe_de_masques_9" data-name="Groupe de masques 9" transform="translate(-267 71)" clip-path="url(#clip-path)">
      <g id="e27f34dc9ee93c28bdc7e15d6a07a419" transform="translate(3788.774 1921)">
        <path id="Tracé_6982" data-name="Tracé 6982" d="M72.908,44.89H71.2a3.568,3.568,0,0,0-3.632,3.5V63.234h8.978V48.394A3.573,3.573,0,0,0,72.908,44.89Zm24.071,0H95.263a3.567,3.567,0,0,0-3.629,3.5V63.234h8.976V48.394A3.569,3.569,0,0,0,96.978,44.89Z" transform="translate(-20.862 -18.938)" fill="#5eff17"/>
        <path id="Tracé_6983" data-name="Tracé 6983" d="M79.418,17.74c-34.864,0-63.226,29.822-63.226,66.481a67.839,67.839,0,0,0,18.41,46.9,63.048,63.048,0,0,0,25.159,16.3,6.036,6.036,0,0,0,7.68-4.1,6.476,6.476,0,0,0-3.9-8.073,50.92,50.92,0,0,1-20.307-13.17A54.764,54.764,0,0,1,28.373,84.221c0-29.6,22.9-53.675,51.047-53.675s51.047,24.078,51.047,53.675a54.728,54.728,0,0,1-14.941,37.946c-3.7,3.493-12.876,10.511-18.385,10.511a8.167,8.167,0,0,1-6.667-2.948c-4.358-5.1-5.312-15.441-5.274-22.638,10.569-.561,18.982-9.722,18.982-20.976V66.19H54.653V86.116c0,11.031,8.082,20.062,18.359,20.943-.063,8.58,1.082,22.641,8.382,31.205a20.093,20.093,0,0,0,15.747,7.22c11.78,0,25.189-12.511,26.677-13.935l.2-.195a67.792,67.792,0,0,0,18.629-47.133C142.644,47.563,114.282,17.74,79.418,17.74Z" transform="translate(-16.192 -17.74)" fill="#fff"/>
      </g>
    </g>
  </g>
</svg>
