<svg xmlns="http://www.w3.org/2000/svg" xmlns:xlink="http://www.w3.org/1999/xlink" width="120" height="120" viewBox="0 0 120 120">
  <defs>
    <clipPath id="clip-path">
      <rect id="Rectangle_235" data-name="Rectangle 235" width="58" height="53" transform="translate(-2931 7861)" fill="#fff" stroke="#707070" stroke-width="1"/>
    </clipPath>
  </defs>
  <g id="Groupe_269" data-name="Groupe 269" transform="translate(2731 -7955)">
    <circle id="Ellipse_145" data-name="Ellipse 145" cx="60" cy="60" r="60" transform="translate(-2731 7955)" fill="#4b0b81"/>
    <g id="Groupe_de_masques_55" data-name="Groupe de masques 55" transform="translate(231 127)" clip-path="url(#clip-path)">
      <g id="cd0708843425a4abdd3aba7ac752dd47" transform="translate(-2926.073 7861)">
        <path id="Tracé_968" data-name="Tracé 968" d="M50.287,32.372l-4.3-6.448a18.66,18.66,0,0,0-5.534-13.047A16.84,16.84,0,0,0,27.672,8.018c-9.048.495-16.274,8.312-16.463,17.8a18.587,18.587,0,0,0,5.362,13.5l-1.813,5.424a7.166,7.166,0,0,0,.894,6.334A6.455,6.455,0,0,0,21,53.925h8.73a5.812,5.812,0,0,0,5.594-4.567l.533-2.226,2.6.495a5.527,5.527,0,0,0,4.623-1.245,6.029,6.029,0,0,0,2.088-4.593V37.274L48.9,36.3a2.488,2.488,0,0,0,1.693-1.563,2.63,2.63,0,0,0-.275-2.367Z" transform="translate(-2.607 -0.934)" fill="#3df2e1"/>
        <g id="Groupe_264" data-name="Groupe 264" transform="translate(0 0)">
          <path id="Tracé_969" data-name="Tracé 969" d="M22.963,1.6a.874.874,0,0,0-.859.883V6.9a.86.86,0,1,0,1.719,0V2.483A.874.874,0,0,0,22.963,1.6Zm-5.156,0a.874.874,0,0,0-.859.883V6.9a.86.86,0,1,0,1.719,0V2.483A.874.874,0,0,0,17.807,1.6Zm-5.156,0a.874.874,0,0,0-.859.883V6.9a.86.86,0,1,0,1.719,0V2.483A.874.874,0,0,0,12.652,1.6ZM22.963,25.45a.874.874,0,0,0-.859.883V30.75a.86.86,0,1,0,1.719,0V26.333A.874.874,0,0,0,22.963,25.45Zm-5.156,0a.874.874,0,0,0-.859.883V30.75a.86.86,0,1,0,1.719,0V26.333A.874.874,0,0,0,17.807,25.45Zm-5.156,0a.874.874,0,0,0-.859.883V30.75a.86.86,0,1,0,1.719,0V26.333A.874.874,0,0,0,12.652,25.45Zm18.9-4.417h-4.3a.884.884,0,0,0,0,1.767h4.3a.884.884,0,0,0,0-1.767Zm0-5.3h-4.3a.884.884,0,0,0,0,1.767h4.3a.884.884,0,0,0,0-1.767Zm-4.3-3.533h4.3a.884.884,0,0,0,0-1.767h-4.3a.884.884,0,0,0,0,1.767Zm-18.9,8.833h-4.3a.884.884,0,0,0,0,1.767h4.3a.884.884,0,0,0,0-1.767Zm0-5.3h-4.3a.884.884,0,0,0,0,1.767h4.3a.884.884,0,0,0,0-1.767Zm0-5.3h-4.3a.884.884,0,0,0,0,1.767h4.3a.884.884,0,0,0,0-1.767Z" transform="translate(-3.2 -1.6)" fill="#085a8c"/>
        </g>
        <rect id="Rectangle_236" data-name="Rectangle 236" width="20.622" height="21.2" rx="0.8" transform="translate(4.296 4.417)" fill="#0fb2f3"/>
        <g id="Groupe_265" data-name="Groupe 265" transform="translate(7.73 9.717)">
          <path id="Tracé_970" data-name="Tracé 970" d="M15.5,10.957a.852.852,0,0,0-1.6,0L10.46,19.79a.887.887,0,0,0,.481,1.148.844.844,0,0,0,1.117-.495l.825-2.111a.456.456,0,0,0,.095.018h3.437a.456.456,0,0,1,.095-.018l.825,2.111a.864.864,0,0,0,.8.556.814.814,0,0,0,.318-.062.9.9,0,0,0,.481-1.148L15.5,10.957Zm-1.933,5.627L14.7,13.66l1.134,2.924H13.554Zm9.727,2.65h-.43V12.167h.43a.884.884,0,0,0,0-1.767H20.711a.884.884,0,0,0,0,1.767h.43v7.067h-.43a.884.884,0,0,0,0,1.767h2.578a.884.884,0,0,0,0-1.767Z" transform="translate(-10.397 -10.4)" fill="#fff"/>
        </g>
        <path id="Tracé_971" data-name="Tracé 971" d="M34.8,35.367c-5.113,5.044-6.565,13.135-6.926,15.874H26.137c.318-2.729,1.761-11.51,7.476-17.146a.839.839,0,0,1,1.212.027A.9.9,0,0,1,34.8,35.367ZM21.359,51.241h-.98a5.658,5.658,0,0,1-.868-.062c.8-1.837,3.2-8.021,2.526-14a.87.87,0,0,1,.748-.972.855.855,0,0,1,.954.768c.67,5.883-1.349,11.74-2.38,14.266Z" transform="translate(-1.992 1.759)" fill="#fff"/>
        <g id="Groupe_266" data-name="Groupe 266" transform="translate(18.044 32.683)">
          <ellipse id="Ellipse_146" data-name="Ellipse 146" cx="2.578" cy="2.65" rx="2.578" ry="2.65" transform="translate(12.889)" fill="#0fb2f3"/>
          <ellipse id="Ellipse_147" data-name="Ellipse 147" cx="2.578" cy="2.65" rx="2.578" ry="2.65" transform="translate(0 1.767)" fill="#0fb2f3"/>
        </g>
      </g>
    </g>
  </g>
</svg>
