<svg xmlns="http://www.w3.org/2000/svg" xmlns:xlink="http://www.w3.org/1999/xlink" width="120" height="120" viewBox="0 0 120 120">
  <defs>
    <clipPath id="clip-path">
      <rect id="Rectangle_233" data-name="Rectangle 233" width="58" height="58" transform="translate(-2700 7985)" fill="#fff" stroke="#707070" stroke-width="1"/>
    </clipPath>
  </defs>
  <g id="Groupe_270" data-name="Groupe 270" transform="translate(2700 -8152)">
    <circle id="Ellipse_144" data-name="Ellipse 144" cx="60" cy="60" r="60" transform="translate(-2700 8152)" fill="#6c5d77"/>
    <g id="Groupe_de_masques_54" data-name="Groupe de masques 54" transform="translate(31 198)" clip-path="url(#clip-path)">
      <g id="c02410f8aef6aaffaf58fc484fc4f547" transform="translate(-2695.234 7985)">
        <path id="Tracé_949" data-name="Tracé 949" d="M48.16,34.693a3.429,3.429,0,0,1-2.229,3.724,43.639,43.639,0,0,1-15.316,2.531,43.612,43.612,0,0,1-14.021-2.555,3.422,3.422,0,0,1-2.221-3.65l2.667-21.525A13.852,13.852,0,0,1,30.726,1h.65a13.848,13.848,0,0,1,13.65,11.947Z" transform="translate(-7.09 -0.996)" fill="#4a4f60"/>
        <path id="Tracé_950" data-name="Tracé 950" d="M50.3,34.693,47.17,12.941A13.847,13.847,0,0,0,33.521,1h-.65a13.7,13.7,0,0,0-2.272.189A13.884,13.884,0,0,1,41.983,12.941l3.134,21.752a3.429,3.429,0,0,1-2.229,3.724,43.751,43.751,0,0,1-12.045,2.458q.939.056,1.916.073a43.639,43.639,0,0,0,15.316-2.531A3.429,3.429,0,0,0,50.3,34.693Z" transform="translate(-9.235 -0.996)" fill="#3b3f4d"/>
        <path id="Tracé_951" data-name="Tracé 951" d="M51.664,64.411H8.936a2.936,2.936,0,0,1-2.312-1.132,3.013,3.013,0,0,1-.558-2.538L7.3,53.762A5.9,5.9,0,0,1,11.879,49.3l8.164-1.626,9.994-1.99a.551.551,0,0,1,.21,0L40.8,47.692l8.259,1.573a5.908,5.908,0,0,1,4.708,4.9l.81,6.792a3.012,3.012,0,0,1-.668,2.409,2.935,2.935,0,0,1-2.245,1.049Z" transform="translate(-5.987 -6.411)" fill="#66c1ff"/>
        <path id="Tracé_952" data-name="Tracé 952" d="M55.081,60.953l-.81-6.792a5.908,5.908,0,0,0-4.708-4.9L41.3,47.692,30.75,45.682a.551.551,0,0,0-.21,0l-9.994,1.99L12.383,49.3A5.829,5.829,0,0,0,9.8,50.53l5.559-1.107,9.994-1.99a.551.551,0,0,1,.21,0l10.552,2.01,8.259,1.573a5.908,5.908,0,0,1,4.708,4.9l.81,6.792a3,3,0,0,1-.227,1.707h2.5a2.935,2.935,0,0,0,2.245-1.049,3.012,3.012,0,0,0,.668-2.409Z" transform="translate(-6.49 -6.411)" fill="#4eb7ff"/>
        <path id="Tracé_953" data-name="Tracé 953" d="M41.3,47.692v.141a2.712,2.712,0,0,1-1.026,2.126L40,50.181l-3.88-.739-10.552-2.01a.551.551,0,0,0-.21,0l-4.757.948-5.237,1.042L9.8,50.531A5.818,5.818,0,0,1,12.383,49.3l8.164-1.626,9.994-1.99a.551.551,0,0,1,.21,0Z" transform="translate(-6.491 -6.411)" fill="#4eb7ff"/>
        <path id="Tracé_954" data-name="Tracé 954" d="M42.936,47.692v.141a2.712,2.712,0,0,1-1.026,2.126l-8.895,7.008a1.059,1.059,0,0,1-1.33-.014l-8.521-7a2.7,2.7,0,0,1-.984-2.092v-.193l9.994-1.99a.551.551,0,0,1,.21,0Z" transform="translate(-8.124 -6.411)" fill="#a6f3ba"/>
        <path id="Tracé_955" data-name="Tracé 955" d="M42.936,47.692v.141a2.712,2.712,0,0,1-1.026,2.126l-.281.222-3.88-.739L27.2,47.433a.551.551,0,0,0-.21,0l-4.757.948a2.643,2.643,0,0,1-.05-.516v-.193l9.994-1.99a.551.551,0,0,1,.21,0Z" transform="translate(-8.124 -6.411)" fill="#90f0a9"/>
        <path id="Tracé_956" data-name="Tracé 956" d="M38.545,46.789l-4.992,3.933a.685.685,0,0,1-.86-.009l-4.781-3.925a1.536,1.536,0,0,1-.559-1.187V37.1H39.127v8.483a1.535,1.535,0,0,1-.582,1.206Z" transform="translate(-8.806 -5.372)" fill="#ffcd85"/>
        <path id="Tracé_957" data-name="Tracé 957" d="M42.382,18.767V31.429a6.257,6.257,0,0,1-2.9,5.291l-3.357,2.126a7.121,7.121,0,0,1-7.63,0L25.14,36.72a6.257,6.257,0,0,1-2.9-5.291V18.768a4.973,4.973,0,0,0,4.785-3.482,12.426,12.426,0,0,0,2.5,2.327l.165.114c3.957,2.715,8.292,1.8,12.686,1.04Z" transform="translate(-8.132 -2.728)" fill="#ffcd85"/>
        <path id="Tracé_958" data-name="Tracé 958" d="M29.7,17.727l-.165-.114a12.426,12.426,0,0,1-2.5-2.327,4.973,4.973,0,0,1-4.785,3.482v1.751a4.973,4.973,0,0,0,4.785-3.482,12.426,12.426,0,0,0,2.5,2.327l.165.114c3.957,2.715,8.292,1.8,12.686,1.041V18.767c-4.395.759-8.729,1.675-12.687-1.04Z" transform="translate(-8.132 -2.728)" fill="#ffc570"/>
        <path id="Tracé_959" data-name="Tracé 959" d="M40.191,19.81v12.1a6.257,6.257,0,0,1-2.9,5.291l-3.357,2.126a7.143,7.143,0,0,1-2.086.895,7.121,7.121,0,0,0,5.544-.895L40.753,37.2a6.257,6.257,0,0,0,2.9-5.291V19.248c-1.159.2-2.314.411-3.458.563Z" transform="translate(-9.4 -3.208)" fill="#ffc570"/>
        <path id="Tracé_960" data-name="Tracé 960" d="M13.924,21.977h3.725v5.33H13.924a.876.876,0,0,1-.871-.881V22.858a.876.876,0,0,1,.871-.882Z" transform="translate(-6.92 -3.539)" fill="#676e87"/>
        <path id="Tracé_961" data-name="Tracé 961" d="M43.82,36.934H34.377a.875.875,0,0,1,0-1.751H43.82a2.051,2.051,0,0,0,2.037-2.061V30.577a.865.865,0,1,1,1.729,0v2.545a3.793,3.793,0,0,1-3.766,3.811Z" transform="translate(-9.619 -4.476)" fill="#4a4f60"/>
        <path id="Tracé_962" data-name="Tracé 962" d="M21.467,29.373h-2.13a3,3,0,0,1-2.981-3.018V22.267a3,3,0,0,1,2.981-3.018h2.13Z" transform="translate(-7.355 -3.208)" fill="#676e87"/>
        <path id="Tracé_963" data-name="Tracé 963" d="M18.085,26.355V22.267a3,3,0,0,1,2.981-3.018H19.337a3,3,0,0,0-2.981,3.018v4.088a3,3,0,0,0,2.981,3.018h1.729A3,3,0,0,1,18.085,26.355Z" transform="translate(-7.355 -3.208)" fill="#595f74"/>
        <rect id="Rectangle_234" data-name="Rectangle 234" width="4.848" height="3.454" rx="1.727" transform="translate(21.639 29.856)" fill="#313440"/>
        <path id="Tracé_964" data-name="Tracé 964" d="M53.064,27.306H49.339v-5.33h3.725a.876.876,0,0,1,.871.881v3.567a.876.876,0,0,1-.871.882Z" transform="translate(-11.707 -3.539)" fill="#676e87"/>
        <path id="Tracé_965" data-name="Tracé 965" d="M53.367,21.977H51.638a.876.876,0,0,1,.871.882v3.567a.876.876,0,0,1-.871.882h1.729a.876.876,0,0,0,.871-.881V22.858a.876.876,0,0,0-.871-.882Z" transform="translate(-12.011 -3.539)" fill="#595f74"/>
        <path id="Tracé_966" data-name="Tracé 966" d="M45.443,19.249h2.13a3,3,0,0,1,2.981,3.018v4.088a3,3,0,0,1-2.981,3.018h-2.13V19.249Z" transform="translate(-11.193 -3.208)" fill="#676e87"/>
        <path id="Tracé_967" data-name="Tracé 967" d="M47.633,19.249H45.9a3,3,0,0,1,2.981,3.018v4.088A3,3,0,0,1,45.9,29.373h1.729a3,3,0,0,0,2.981-3.018V22.267A3,3,0,0,0,47.633,19.249Z" transform="translate(-11.254 -3.208)" fill="#595f74"/>
      </g>
    </g>
  </g>
</svg>
