<svg xmlns="http://www.w3.org/2000/svg" xmlns:xlink="http://www.w3.org/1999/xlink" width="120" height="120" viewBox="0 0 120 120">
  <defs>
    <clipPath id="clip-path">
      <rect id="Rectangle_229" data-name="Rectangle 229" width="55" height="56" transform="translate(-2755 7985)" fill="#fff" stroke="#707070" stroke-width="1"/>
    </clipPath>
    <linearGradient id="linear-gradient" x1="0.104" y1="0.471" x2="0.909" y2="0.537" gradientUnits="objectBoundingBox">
      <stop offset="0" stop-color="#00c8b8"/>
      <stop offset="1" stop-color="#00bec4"/>
    </linearGradient>
  </defs>
  <g id="Groupe_267" data-name="Groupe 267" transform="translate(2902 -7954)">
    <circle id="Ellipse_138" data-name="Ellipse 138" cx="60" cy="60" r="60" transform="translate(-2902 7954)" fill="#472365"/>
    <g id="Groupe_de_masques_52" data-name="Groupe de masques 52" transform="translate(-114 1)" clip-path="url(#clip-path)">
      <g id="b15292a9ebab9a456f921946e317e76d" transform="translate(-2754.222 7985)">
        <path id="Tracé_933" data-name="Tracé 933" d="M37.211,8.542c1.5-.053,1.753,1.758,2.284,2.99.762,1.768,1.549,3.522,2.263,5.31,2.455-1.978,5.413-4.051,7.994-5.839A27.169,27.169,0,0,1,52.858,8.93c.95.4.573,1.841.573,2.822l0,4.818a2.836,2.836,0,0,1,2.332,2.217c.334,1.435-.68,2.656-1.364,3.8.966.135,1.937.413,2.892.622,1.275.278,3.2.373,3.585,1.981a49.588,49.588,0,0,1,.156,6.026,8.431,8.431,0,0,1,1.534,1.653c1.157,1.962.323,4.56-.693,6.393-1.134,2.047-.818,1.02-.815,3.689l0,8.436c0,3.429-.647,3.268-2.88,5.171-1.726,1.47-3.5,2.874-5.24,4.324-1.531,1.275-3.61,3.571-5.72,3.659-1.549.065-7.949-1.621-9.649-2.059-2.56-.645-5.136-1.217-7.7-1.828L18.37,57.91c-3.907-.912-7.344-1.487-8.778-6.02A14.858,14.858,0,0,1,9.307,47.6V29.564c0-1.7-.341-3.715,1.033-5,.614-.573,6.835-5.206,7.292-5.358V14.045c0-1.093-.457-3.115,1.11-3.247.841-.071,1.708-.032,2.552-.032h7.27c2.779,0,2.271.551,2.269,3.063l0,3.576c0,.79-.018,1.584.029,2.372a9.381,9.381,0,0,1,1.972-.868,8.727,8.727,0,0,1,1.024-3.639l1.572-3.633C35.871,10.593,36.164,8.847,37.211,8.542Zm15.1,2.008c-.766.468-1.48,1.036-2.206,1.565l-5.558,4c-.695.491-1.44.976-2.09,1.527-.994.843.695,1.091,1.25,1.216,1.949.459,3.923.885,5.855,1.417.614-1.467,1.133-2.99,2.777-3.457.047-.6.1-5.932-.009-6.255Z" transform="translate(-9.269 -8.541)"/>
        <path id="Tracé_934" data-name="Tracé 934" d="M54.134,24.193a11.743,11.743,0,0,0,2.836.649,23.265,23.265,0,0,0-3.381,2.706c-.558.458-1.089.941-1.625,1.425C52.645,27.37,53.371,25.755,54.134,24.193ZM32.949,20.581c.2.364.066,9.887.115,11.328-.517-.151-1.045-.275-1.566-.413l-.5-.115a30.413,30.413,0,0,1-.047-3.178l0-4.028a21.417,21.417,0,0,0-.06-2.468C31.583,21.348,32.239,20.894,32.949,20.581Zm-15.25.677c.139.287,0,6.07.094,7.025-1.7-.526-3.78-.821-5.566-1.294a9.84,9.84,0,0,1-1.4-.51C11.561,25.43,16.555,21.864,17.7,21.257Z" transform="translate(-9.388 -9.153)" fill="#ad5ffd"/>
        <path id="Tracé_935" data-name="Tracé 935" d="M64.534,33.76a3.622,3.622,0,0,1,1.075,3.175c-.4,3.363-3.8,6.726-6.11,9.055a29.951,29.951,0,0,1-2.344,2.295c-.127.087-.335.255-.488.219-.5-.536-.327-3.766-.123-4.316.354-.955,4.309-4.419,5.4-5.375C64.243,36.808,64.765,37.066,64.534,33.76Z" transform="translate(-12.864 -9.824)" fill="#ff9dae"/>
        <path id="Tracé_936" data-name="Tracé 936" d="M55.823,18.168a1.779,1.779,0,0,1,1.836,1.744,12.227,12.227,0,0,1-1.444,3.036c-.624,1.259-1.3,2.775-1.851,4.071C52.987,30.252,53.742,29.594,51,31.7c-.826.636-1.644,1.278-2.448,1.943-1.946,1.538-1.258.4-.585-1.054,1.759-3.81,3.729-7.511,5.459-11.338C53.953,20.094,54.358,18.345,55.823,18.168Z" transform="translate(-12.172 -9.031)" fill="url(#linear-gradient)"/>
        <path id="Tracé_937" data-name="Tracé 937" d="M44.773,20.075c2.318.662,4.687,1.137,7,1.807-1.257,2.806-2.7,5.509-3.961,8.285l-1.24,2.578a15.693,15.693,0,0,1-.738,1.432,6.368,6.368,0,0,1-1.042-.13,16.465,16.465,0,0,1-.028-1.72Z" transform="translate(-11.979 -9.128)" fill="#ad5ffd"/>
        <path id="Tracé_938" data-name="Tracé 938" d="M25.755,11.981c1.6.086,3.223-.059,4.825.059a22.949,22.949,0,0,0-.053,2.468l0,16.16c-.213.025-4.115-.907-4.666-1.019C25.631,23.769,25.858,17.865,25.755,11.981Zm-5.849.039c1.592-.05,3.231-.067,4.822,0l0,14.836c0,.845-.018,1.694.036,2.538l-.335-.087c-1.634-.413-3.291-.773-4.932-1.157-.088-.968-.041-1.965-.041-2.937V15.022c0-.986-.047-2,.034-2.984Z" transform="translate(-10.046 -8.716)" fill="#ff9dae"/>
        <path id="Tracé_939" data-name="Tracé 939" d="M37.143,15.444c1.564.148,3.177.047,4.749.057a7.091,7.091,0,0,1,1.176,4.249l0,13.789c-.329-.088-.662-.164-.993-.245-2.016-.442-4.009-.993-6.031-1.407-.046-1.144-.02-2.3-.02-3.44V22.626a36.714,36.714,0,0,1,.048-4.565C36.244,17.169,36.876,16.347,37.143,15.444Z" transform="translate(-11.309 -8.892)" fill="#fff"/>
        <path id="Tracé_940" data-name="Tracé 940" d="M61.231,25.353l.034,0c2.177.178,1.708,1.958,1.709,3.751l0,5.06c0,.445.022.9-.017,1.343a6,6,0,0,1-.7.662l-1.368,1.2c-1.116.965-2.2,1.974-3.276,2.983-1.941,1.819-2.91,2.342-2.9,5.291,0,1.1-.121,2.477.8,3.253,1.113.938,2.453-.873,3.179-1.584a37.625,37.625,0,0,0,4.261-4.6c.046.877.025,1.761.025,2.639l0,6.939c0,2.822-.231,2.5-2.323,4.169L58.926,57.85c-1.762,1.437-6.476,5.824-8.234,6.352-.222-2.384-.119-5.229-.119-7.634l0-16.743c0-1.829.279-3.857-1.784-4.651,3.136-2.127,6.344-4.953,9.311-7.346l2.009-1.641A7.85,7.85,0,0,1,61.231,25.353Z" transform="translate(-12.288 -9.396)" fill="#ad5ffd"/>
        <path id="Tracé_941" data-name="Tracé 941" d="M10.4,27.941c2.34.994,6.826,1.737,9.382,2.341l21.67,5.13c1.009.248,3.881.7,4.555,1.257.832.683.571,2.23.565,3.189-.008,1.243-.024,2.486-.017,3.729l.094,17.473c0,1.08-.018,2.187.077,3.263a28.637,28.637,0,0,1-3.816-.771C38.191,62.52,33.5,61.333,28.8,60.219l-5.02-1.17c-1.105-.266-2.2-.565-3.311-.818-3.873-.882-9.074-1.362-9.951-6.38a20.347,20.347,0,0,1-.1-3.424V29.445C10.413,28.942,10.387,28.443,10.4,27.941Z" transform="translate(-9.355 -9.528)" fill="#ad5ffd"/>
      </g>
    </g>
  </g>
</svg>
