<svg xmlns="http://www.w3.org/2000/svg" xmlns:xlink="http://www.w3.org/1999/xlink" width="120" height="120" viewBox="0 0 120 120">
  <defs>
    <clipPath id="clip-path">
      <rect id="Rectangle_230" data-name="Rectangle 230" width="57" height="58" transform="translate(-2711 8217.611)" fill="#fff" stroke="#707070" stroke-width="1"/>
    </clipPath>
  </defs>
  <g id="Groupe_268" data-name="Groupe 268" transform="translate(2909 -8158)">
    <circle id="Ellipse_142" data-name="Ellipse 142" cx="60" cy="60" r="60" transform="translate(-2909 8158)" fill="#9abf1d"/>
    <g id="Groupe_de_masques_53" data-name="Groupe de masques 53" transform="translate(-166 -34.611)" clip-path="url(#clip-path)">
      <g id="a165abb209d15ad528554a42be4925f0" transform="translate(-2709.892 8217.979)">
        <path id="Tracé_942" data-name="Tracé 942" d="M18.652,32.732H4.531L0,22.69H14.121Z" transform="translate(0 -4.651)" fill="#d84200"/>
        <path id="Tracé_943" data-name="Tracé 943" d="M20.334,34.044l-2.266-5.021L6.213,34.052Z" transform="translate(-1.702 -5.949)" fill="#c63502"/>
        <path id="Tracé_944" data-name="Tracé 944" d="M30.9,0c-7.02,0-12.71,6.231-12.71,13.917,0,11.591,12.71,22.161,12.71,22.161s12.71-11.2,12.71-22.161C43.606,6.231,37.916,0,30.9,0Z" transform="translate(-4.981)" fill="#33b1ff"/>
        <path id="Tracé_945" data-name="Tracé 945" d="M35.657.4c-5.716,1.361-10,6.932-10,13.6,0,8.1,6.2,15.693,9.94,19.539C39.327,29.583,45.654,21.73,45.654,14,45.654,7.333,41.373,1.763,35.657.4Z" transform="translate(-7.029 -0.082)" fill="#00cfff"/>
        <rect id="Rectangle_231" data-name="Rectangle 231" width="32.841" height="29.123" transform="translate(17.048 28.081)" fill="#ff6700"/>
        <rect id="Rectangle_232" data-name="Rectangle 232" width="32.841" height="29.123" transform="translate(4.531 28.081)" fill="#ff9100"/>
        <path id="Tracé_946" data-name="Tracé 946" d="M39.1,35.4H6.253L6.213,64.475l9.4.023,3.456-14.946,15.452-2.8Z" transform="translate(-1.702 -7.257)" fill="#ff791f"/>
        <path id="Tracé_947" data-name="Tracé 947" d="M51.551,32.732H64.009L68.54,22.69H56.082Z" transform="translate(-14.12 -4.651)" fill="#d84200"/>
        <path id="Tracé_948" data-name="Tracé 948" d="M0,46.726H32.841l4.531-11.4H4.531Z" transform="translate(0 -7.242)" fill="#e84d00"/>
        <ellipse id="Ellipse_143" data-name="Ellipse 143" cx="4.913" cy="5.379" rx="4.913" ry="5.379" transform="translate(21 8.354)" fill="#fff"/>
      </g>
    </g>
  </g>
</svg>
