<svg xmlns="http://www.w3.org/2000/svg" xmlns:xlink="http://www.w3.org/1999/xlink" width="120" height="120" viewBox="0 0 120 120">
  <defs>
    <clipPath id="clip-path">
      <circle id="Ellipse_141" data-name="Ellipse 141" cx="30" cy="30" r="30" transform="translate(-2737 7659)" fill="#fff"/>
    </clipPath>
  </defs>
  <g id="Groupe_262" data-name="Groupe 262" transform="translate(2769 -7639)">
    <circle id="Ellipse_140" data-name="Ellipse 140" cx="60" cy="60" r="60" transform="translate(-2769 7639)" fill="#472365"/>
    <g id="Groupe_de_masques_50" data-name="Groupe de masques 50" transform="translate(-2 10)" clip-path="url(#clip-path)">
      <g id="_84ce9ad4991d72fc367b9112f4447229" data-name="84ce9ad4991d72fc367b9112f4447229" transform="translate(-2735.412 7661.911)">
        <path id="Tracé_928" data-name="Tracé 928" d="M50.354,21.765l-18.3,10.324L13.736,21.765a1.544,1.544,0,0,0-.29.731l18.2,10.261V53.72a1.587,1.587,0,0,0,.769,0V32.757L50.632,22.5a1.409,1.409,0,0,0-.277-.731Z" transform="translate(-4.95 -5.441)" fill="#eff3fe"/>
        <path id="Tracé_929" data-name="Tracé 929" d="M32.034,28.6l-18.3-10.324a1.381,1.381,0,0,1,.479-.416l5.244-3.025,6.756-3.908,5.042-2.912a1.549,1.549,0,0,1,1.55,0l17.068,9.832a1.7,1.7,0,0,1,.479.416L32.034,28.6ZM13.442,19.007a.954.954,0,0,0-.013.189v19.69a1.506,1.506,0,0,0,.782,1.336l17.055,9.857a1.477,1.477,0,0,0,.391.151V29.268L13.442,19.007Zm37.186,0-18.2,10.261V50.23a1.477,1.477,0,0,0,.391-.151l17.055-9.845A1.52,1.52,0,0,0,50.64,38.9V19.2a.324.324,0,0,0-.013-.189Z" transform="translate(-4.946 -1.952)" fill="#f4ae3d"/>
        <path id="Tracé_930" data-name="Tracé 930" d="M46.837,23.551V33.774a.247.247,0,0,1-.353.227L43.7,32.715l-3.378,4.74a.25.25,0,0,1-.454-.151v-9.87a1.44,1.44,0,0,0-.719-1.248L21.463,15.874l6.756-3.908,17.9,10.349a1.356,1.356,0,0,1,.719,1.235Z" transform="translate(-6.954 -2.992)" fill="#5152df"/>
        <path id="Tracé_931" data-name="Tracé 931" d="M52.186,41.459a25.914,25.914,0,0,1-2.193,3.013,1.07,1.07,0,0,1-.819.378,1.016,1.016,0,0,1-.681-.252,1.061,1.061,0,0,1-.126-1.5,24.483,24.483,0,0,0,2.017-2.786,1.076,1.076,0,0,1,1.462-.34,1.107,1.107,0,0,1,.34,1.487Zm2.546-9.088a1.045,1.045,0,0,0-1.286.769,24.529,24.529,0,0,1-1.21,3.63,1.056,1.056,0,0,0,.567,1.387.989.989,0,0,0,.416.088,1.061,1.061,0,0,0,.983-.655,28.381,28.381,0,0,0,1.311-3.945,1.072,1.072,0,0,0-.782-1.273Zm5.483-8.71a1.058,1.058,0,0,0-1.5,0L56.27,26.106a27.09,27.09,0,1,0-9.807,21.858A1.065,1.065,0,0,0,45.1,46.325a24.959,24.959,0,1,1,9.051-20.232l-2.408-2.408a1.061,1.061,0,0,0-1.5,1.5l4.223,4.235a1.08,1.08,0,0,0,.756.315,1.049,1.049,0,0,0,.756-.315l4.248-4.248a1.085,1.085,0,0,0-.013-1.513Z" transform="translate(-2.118)" fill="#5152df"/>
      </g>
    </g>
  </g>
</svg>
