<svg xmlns="http://www.w3.org/2000/svg" xmlns:xlink="http://www.w3.org/1999/xlink" width="120" height="120" viewBox="0 0 120 120">
  <defs>
    <clipPath id="clip-path">
      <rect id="Rectangle_227" data-name="Rectangle 227" width="46" height="46" transform="translate(-2596 7676)" fill="#fff" stroke="#707070" stroke-width="1"/>
    </clipPath>
  </defs>
  <g id="Groupe_263" data-name="Groupe 263" transform="translate(2633 -7639)">
    <circle id="Ellipse_140" data-name="Ellipse 140" cx="60" cy="60" r="60" transform="translate(-2633 7639)" fill="#472365"/>
    <g id="Groupe_de_masques_51" data-name="Groupe de masques 51" clip-path="url(#clip-path)">
      <g id="Layer_2" data-name="Layer 2" transform="translate(-2596 7676)">
        <g id="Layer_1" data-name="Layer 1">
          <rect id="Rectangle_228" data-name="Rectangle 228" width="46" height="46" rx="10.325" fill="#6772e5"/>
          <path id="Tracé_932" data-name="Tracé 932" d="M21.192,17.846c0-1.1.908-1.593,2.374-1.593a15.679,15.679,0,0,1,6.963,1.8V11.536a18.483,18.483,0,0,0-6.947-1.275c-5.672,0-9.464,2.964-9.464,7.967,0,7.744,10.644,6.485,10.644,9.831,0,1.291-1.131,1.7-2.677,1.7a17.622,17.622,0,0,1-7.744-2.278v6.676a19.423,19.423,0,0,0,7.648,1.593c5.816,0,9.831-2.868,9.831-7.967.048-8.3-10.628-6.8-10.628-9.943Z" fill="#fff" fill-rule="evenodd"/>
        </g>
      </g>
    </g>
  </g>
</svg>
